<?xml version="1.0" encoding="UTF-8"?>
<svg width="184px" height="32px" viewBox="0 0 184 32" version="1.1" xmlns="http://www.w3.org/2000/svg" xmlns:xlink="http://www.w3.org/1999/xlink">
    <!-- Generator: Sketch 52.6 (67491) - http://www.bohemiancoding.com/sketch -->
    <title>hva_logo_int_RGB</title>
    <desc>Created with Sketch.</desc>
    <g id="Main" stroke="none" stroke-width="1" fill="none" fill-rule="evenodd">
        <g id="0.0-static-front" transform="translate(-1021.000000, -643.000000)" fill="#000000" fill-rule="nonzero">
            <g id="hva_logo_int_RGB" transform="translate(1021.000000, 643.000000)">
                <path d="M17.3003984,7.63636364 C21.7721116,7.63636364 26.0239044,8.87272727 29.6159363,10.9090909 L33.5011952,4.36363636 C28.736255,1.6 23.1649402,0 17.3003984,0 C11.3625498,0 5.86454183,1.6 1.09960159,4.36363636 L4.98486056,10.9090909 C8.57689243,8.8 12.8286853,7.63636364 17.3003984,7.63636364 Z" id="Path"></path>
                <path d="M20.8924303,11.2 C19.352988,11.2 14.5880478,11.1272727 8.43027888,13.8909091 C7.62390438,14.2545455 7.11075697,14.5454545 6.96414343,14.3272727 C6.67091633,13.8909091 8.6501992,12.2909091 10.7760956,11.0545455 C11.5091633,10.6181818 11.949004,10.2545455 11.8023904,9.89090909 C11.5824701,9.38181818 10.0430279,9.30909091 5.86454183,11.4181818 C3.66533865,12.7272727 1.68605578,14.1818182 0.0733067729,16 L0.733067729,16.6545455 C1.39282869,15.9272727 2.12589641,15.2727273 2.85896414,14.6181818 C3.37211155,14.1818182 5.64462151,12.5090909 5.86454183,13.0181818 C5.93784861,13.2363636 5.79123506,13.5272727 4.98486056,14.6181818 C4.25179283,15.5636364 3.81195219,16.5090909 4.17848606,16.8 C4.54501992,17.0909091 4.91155378,16.9454545 5.86454183,16.3636364 C6.59760956,16 8.79681275,14.7636364 12.3155378,13.7454545 C15.8342629,12.7272727 16.7139442,13.0909091 16.787251,13.3818182 C16.8605578,13.7454545 15.2478088,14.3272727 14.2948207,14.7636364 C13.4884462,15.2 10.6294821,16.8 9.09003984,18.0363636 C9.09003984,18.0363636 10.5561753,20.5818182 10.5561753,20.5818182 C12.1689243,19.6363636 18.1800797,18.1090909 18.8398406,19.2 C19.5729084,20.4363636 13.1219124,24.8727273 13.1219124,24.8727273 L17.2270916,31.8545455 C17.2270916,31.8545455 26.5370518,21.2363636 25.0709163,18.9090909 C23.6047809,16.5818182 17.9601594,17.0181818 15.7609562,17.2363636 C15.174502,17.3090909 14.4414343,17.4545455 14.2948207,17.0909091 C14.1482072,16.7272727 14.2948207,15.4181818 21.8454183,13.6727273 C23.5314741,13.3090909 24.1912351,13.0909091 24.0446215,12.3636364 C23.9713147,11.7818182 22.4318725,11.2727273 20.8924303,11.2 Z" id="Path"></path>
                <g id="Group" transform="translate(39.585657, 4.363636)">
                    <path d="M5.93784861,9.38181818 C6.52430279,9.38181818 6.89083665,9.38181818 6.89083665,9.01818182 C6.89083665,8.8 6.67091633,8.29090909 6.45099602,7.63636364 L6.08446215,6.76363636 L2.7123506,6.76363636 L2.34581673,7.56363636 C2.19920319,8 1.97928287,8.50909091 1.97928287,8.8 C1.97928287,9.16363636 2.27250996,9.30909091 2.7123506,9.38181818 L3.07888446,9.38181818 L3.07888446,9.74545455 L0.219920319,9.74545455 L0.219920319,9.38181818 C0.879681275,9.38181818 1.17290837,9.01818182 1.53944223,8 L4.10517928,1.89090909 C4.3250996,1.38181818 4.54501992,0.872727273 4.69163347,0.363636364 L5.86454183,0.363636364 C6.15776892,1.01818182 6.37768924,1.6 6.59760956,2.18181818 L9.01673307,8.43636364 C9.16334661,8.87272727 9.38326693,9.38181818 9.89641434,9.38181818 L10.1896414,9.38181818 L10.1896414,9.74545455 L6.01115538,9.74545455 L6.01115538,9.38181818 L5.93784861,9.38181818 Z M4.54501992,2.61818182 L3.00557769,6.32727273 L6.01115538,6.32727273 L4.54501992,2.61818182 Z" id="Shape"></path>
                    <path d="M10.2629482,9.38181818 L10.7027888,9.38181818 C11.0693227,9.38181818 11.2159363,9.23636364 11.2159363,8.50909091 L11.2159363,4.50909091 C11.2159363,3.78181818 11.0693227,3.63636364 10.7027888,3.63636364 L10.2629482,3.63636364 L10.2629482,3.27272727 L11.6557769,3.27272727 C12.1689243,3.27272727 12.6087649,3.2 13.0486056,3.05454545 L13.0486056,4.21818182 C13.561753,3.49090909 14.2215139,3.05454545 15.174502,3.05454545 C16.0541833,3.05454545 16.7139442,3.34545455 16.9338645,4.21818182 C17.5203187,3.41818182 18.0334661,3.05454545 19.1330677,3.05454545 C20.4525896,3.05454545 21.0390438,3.85454545 21.0390438,4.87272727 L21.0390438,8.50909091 C21.0390438,9.23636364 21.1856574,9.38181818 21.5521912,9.38181818 L21.8454183,9.38181818 L21.8454183,9.74545455 L18.3266932,9.74545455 L18.3266932,9.38181818 L18.6199203,9.38181818 C18.9864542,9.38181818 19.1330677,9.23636364 19.1330677,8.50909091 L19.1330677,5.23636364 C19.1330677,4.58181818 19.1330677,3.85454545 18.3266932,3.85454545 C17.0804781,3.85454545 17.0804781,5.30909091 17.0804781,6.10909091 L17.0804781,8.50909091 C17.0804781,9.23636364 17.2270916,9.38181818 17.5936255,9.38181818 L17.8868526,9.38181818 L17.8868526,9.74545455 L14.3681275,9.74545455 L14.3681275,9.38181818 L14.6613546,9.38181818 C15.0278884,9.38181818 15.174502,9.23636364 15.174502,8.50909091 L15.174502,5.23636364 C15.174502,4.58181818 15.174502,3.85454545 14.3681275,3.85454545 C13.1219124,3.85454545 13.1219124,5.30909091 13.1219124,6.10909091 L13.1219124,8.50909091 C13.1219124,9.23636364 13.2685259,9.38181818 13.6350598,9.38181818 L13.9282869,9.38181818 L13.9282869,9.74545455 L10.2629482,9.74545455 L10.2629482,9.38181818 Z" id="Path"></path>
                    <path d="M22.7250996,7.63636364 L23.1649402,7.63636364 C23.4581673,8.72727273 24.0446215,9.52727273 25.2908367,9.52727273 C25.9505976,9.52727273 26.6103586,9.16363636 26.6103586,8.50909091 C26.6103586,7.70909091 25.9505976,7.49090909 24.7043825,7.2 C23.7513944,6.98181818 22.7984064,6.61818182 22.7984064,5.30909091 C22.7984064,3.78181818 23.9713147,3.05454545 25.3641434,3.05454545 C25.9505976,3.05454545 26.3904382,3.27272727 26.8302789,3.27272727 C27.1968127,3.27272727 27.4167331,3.2 27.5633466,3.05454545 L27.6366534,3.05454545 L27.6366534,5.16363636 L27.123506,5.16363636 C26.9768924,4.29090909 26.3171315,3.49090909 25.3641434,3.49090909 C24.7043825,3.49090909 24.0446215,3.70909091 24.0446215,4.50909091 C24.0446215,5.16363636 24.4111554,5.23636364 25.8772908,5.6 C27.0501992,5.89090909 27.9298805,6.25454545 27.9298805,7.70909091 C27.9298805,9.23636364 26.6103586,9.89090909 25.2175299,9.89090909 C24.6310757,9.89090909 23.898008,9.67272727 23.3848606,9.67272727 C23.0916335,9.67272727 22.8717131,9.81818182 22.7250996,9.89090909 L22.7250996,7.63636364 Z" id="Path"></path>
                    <path d="M32.9880478,3.63636364 L31.5952191,3.63636364 L31.5952191,7.85454545 C31.5952191,8.65454545 31.5952191,9.23636364 32.1816733,9.23636364 C32.6948207,9.23636364 32.7681275,8.72727273 32.7681275,8.29090909 L32.7681275,7.85454545 L33.2812749,7.85454545 L33.2812749,8.14545455 C33.2812749,9.45454545 32.7681275,10.0363636 31.5952191,10.0363636 C30.2756972,10.0363636 29.7625498,9.23636364 29.7625498,8.36363636 L29.7625498,3.63636364 L28.8095618,3.63636364 L28.8095618,3.27272727 C30.1290837,3.2 30.9354582,1.96363636 31.2286853,0.8 L31.5952191,0.8 L31.5952191,3.27272727 L32.9880478,3.27272727 L32.9880478,3.63636364 Z" id="Path"></path>
                    <path d="M36.140239,6.54545455 L36.140239,6.83636364 C36.140239,8.14545455 36.2868526,9.52727273 37.752988,9.52727273 C38.9258964,9.52727273 39.5856574,8.58181818 39.5856574,7.56363636 L40.1721116,7.56363636 C40.025498,9.16363636 38.9992032,10.0363636 37.3131474,10.0363636 C35.2605578,10.0363636 34.0876494,8.58181818 34.0876494,6.54545455 C34.0876494,4.50909091 35.2605578,3.05454545 37.3131474,3.05454545 C39.5123506,3.05454545 40.2454183,4.50909091 40.2454183,6.54545455 L36.140239,6.54545455 Z M38.2661355,6.10909091 C38.2661355,4.72727273 38.2661355,3.49090909 37.3131474,3.49090909 C36.2135458,3.49090909 36.140239,4.87272727 36.140239,6.10909091 L38.2661355,6.10909091 Z" id="Shape"></path>
                    <path d="M43.9840637,8.50909091 C43.9840637,9.23636364 44.1306773,9.38181818 44.4972112,9.38181818 L45.0836653,9.38181818 L45.0836653,9.74545455 L41.1250996,9.74545455 L41.1250996,9.38181818 L41.5649402,9.38181818 C41.9314741,9.38181818 42.0780876,9.23636364 42.0780876,8.50909091 L42.0780876,4.50909091 C42.0780876,3.78181818 41.9314741,3.63636364 41.5649402,3.63636364 L41.1250996,3.63636364 L41.1250996,3.27272727 L42.5179283,3.27272727 C43.0310757,3.27272727 43.4709163,3.2 43.910757,3.05454545 L43.910757,4.50909091 L43.9840637,4.50909091 C44.2772908,3.85454545 44.863745,3.12727273 45.7434263,3.12727273 C46.3298805,3.12727273 47.0629482,3.41818182 47.0629482,4.21818182 C47.0629482,4.8 46.6231076,5.16363636 45.9633466,5.16363636 C45.6701195,5.16363636 45.0836653,5.01818182 45.0836653,4.36363636 C45.0836653,4.14545455 45.0836653,4.07272727 44.9370518,4.07272727 C44.5705179,4.07272727 43.9840637,4.94545455 43.9840637,6.32727273 L43.9840637,8.50909091 Z" id="Path"></path>
                    <path d="M52.2677291,8.8 C51.974502,9.6 51.1681275,9.96363636 50.2884462,9.96363636 C48.4557769,9.96363636 47.7960159,8.07272727 47.7960159,6.54545455 C47.7960159,4.87272727 48.4557769,3.05454545 50.361753,3.05454545 C51.1681275,3.05454545 51.8278884,3.41818182 52.1944223,4.14545455 L52.1944223,1.30909091 C52.1944223,0.654545455 52.1944223,0.436363636 51.6812749,0.436363636 L51.2414343,0.436363636 L51.2414343,0.0727272727 L54.0270916,0.0727272727 L54.0270916,8.50909091 C54.0270916,9.30909091 54.1737052,9.38181818 54.540239,9.38181818 L54.9800797,9.38181818 L54.9800797,9.74545455 L52.1944223,9.74545455 L52.1944223,8.8 L52.2677291,8.8 Z M50.8015936,9.30909091 C52.1211155,9.30909091 52.1211155,7.2 52.1211155,6.32727273 C52.1211155,5.45454545 52.0478088,3.63636364 50.8015936,3.63636364 C49.7752988,3.63636364 49.7752988,5.67272727 49.7752988,6.25454545 C49.7752988,6.98181818 49.7752988,9.30909091 50.8015936,9.30909091 Z" id="Shape"></path>
                    <path d="M62.7505976,7.92727273 C62.7505976,8.8 62.7505976,9.96363636 61.1378486,9.96363636 C60.6247012,9.96363636 59.9649402,9.67272727 59.7450199,9.09090909 C59.3784861,9.74545455 58.5721116,9.96363636 57.8390438,9.96363636 C56.7394422,9.96363636 55.7864542,9.30909091 55.7864542,8.14545455 C55.7864542,6.47272727 57.6924303,5.89090909 59.085259,5.89090909 C59.3051793,5.89090909 59.4517928,5.89090909 59.6717131,5.89090909 L59.6717131,4.50909091 C59.6717131,3.92727273 59.4517928,3.49090909 58.7920319,3.49090909 C58.4988048,3.49090909 57.9123506,3.56363636 57.9123506,3.85454545 C57.9123506,4 58.2055777,4.21818182 58.2055777,4.58181818 C58.2055777,5.16363636 57.7657371,5.45454545 57.2525896,5.45454545 C56.6661355,5.45454545 56.2996016,5.09090909 56.2996016,4.50909091 C56.2996016,3.27272727 57.9856574,2.98181818 58.9386454,2.98181818 C60.1848606,2.98181818 61.650996,3.27272727 61.650996,4.8 L61.650996,8.72727273 C61.650996,9.09090909 61.7976096,9.23636364 61.9442231,9.23636364 C62.3840637,9.23636364 62.3840637,8.58181818 62.3840637,7.92727273 L62.7505976,7.92727273 Z M59.5984064,6.32727273 C59.4517928,6.25454545 59.3051793,6.25454545 59.2318725,6.25454545 C58.2055777,6.25454545 57.6924303,6.98181818 57.6924303,8.14545455 C57.6924303,8.72727273 57.9123506,9.30909091 58.5721116,9.30909091 C58.9386454,9.30909091 59.5984064,9.09090909 59.5984064,8 L59.5984064,6.32727273 Z" id="Shape"></path>
                    <path d="M63.263745,9.38181818 L63.7035857,9.38181818 C64.0701195,9.38181818 64.2167331,9.23636364 64.2167331,8.50909091 L64.2167331,4.50909091 C64.2167331,3.78181818 64.0701195,3.63636364 63.7035857,3.63636364 L63.263745,3.63636364 L63.263745,3.27272727 L64.6565737,3.27272727 C65.1697211,3.27272727 65.6095618,3.2 66.0494024,3.05454545 L66.0494024,4.21818182 C66.5625498,3.49090909 67.2223108,3.05454545 68.1752988,3.05454545 C69.0549801,3.05454545 69.714741,3.34545455 69.9346614,4.21818182 C70.5211155,3.41818182 71.0342629,3.05454545 72.1338645,3.05454545 C73.4533865,3.05454545 74.0398406,3.85454545 74.0398406,4.87272727 L74.0398406,8.50909091 C74.0398406,9.23636364 74.1864542,9.38181818 74.552988,9.38181818 L74.8462151,9.38181818 L74.8462151,9.74545455 L71.32749,9.74545455 L71.32749,9.38181818 L71.6207171,9.38181818 C71.987251,9.38181818 72.1338645,9.23636364 72.1338645,8.50909091 L72.1338645,5.23636364 C72.1338645,4.58181818 72.1338645,3.85454545 71.32749,3.85454545 C70.0812749,3.85454545 70.0812749,5.30909091 70.0812749,6.10909091 L70.0812749,8.50909091 C70.0812749,9.23636364 70.2278884,9.38181818 70.5944223,9.38181818 L70.8876494,9.38181818 L70.8876494,9.74545455 L67.3689243,9.74545455 L67.3689243,9.38181818 L67.6621514,9.38181818 C68.0286853,9.38181818 68.1752988,9.23636364 68.1752988,8.50909091 L68.1752988,5.23636364 C68.1752988,4.58181818 68.1752988,3.85454545 67.3689243,3.85454545 C66.1227092,3.85454545 66.1227092,5.30909091 66.1227092,6.10909091 L66.1227092,8.50909091 C66.1227092,9.23636364 66.2693227,9.38181818 66.6358566,9.38181818 L66.9290837,9.38181818 L66.9290837,9.74545455 L63.263745,9.74545455 L63.263745,9.38181818 Z" id="Path"></path>
                    <path d="M88.4079681,0.872727273 L88.0414343,0.872727273 C87.3816733,0.872727273 87.3816733,1.23636364 87.3816733,2.90909091 L87.3816733,6.83636364 C87.3816733,8.72727273 86.1354582,10.0363636 84.0828685,10.0363636 C81.663745,10.0363636 80.4175299,8.72727273 80.4175299,6.83636364 L80.4175299,2.90909091 C80.4175299,1.23636364 80.4175299,0.872727273 79.7577689,0.872727273 L79.3912351,0.872727273 L79.3912351,0.509090909 L83.4231076,0.509090909 L83.4231076,0.872727273 L83.0565737,0.872727273 C82.3968127,0.872727273 82.3968127,1.23636364 82.3968127,2.90909091 L82.3968127,7.05454545 C82.3968127,8.8 83.3498008,9.45454545 84.4494024,9.45454545 C85.6956175,9.45454545 86.7952191,8.58181818 86.7952191,6.69090909 L86.7952191,2.90909091 C86.7952191,1.23636364 86.7952191,0.872727273 86.1354582,0.872727273 L85.7689243,0.872727273 L85.7689243,0.509090909 L88.3346614,0.509090909 L88.3346614,0.872727273 L88.4079681,0.872727273 Z" id="Path"></path>
                    <path d="M88.9211155,9.38181818 L89.3609562,9.38181818 C89.72749,9.38181818 89.8741036,9.23636364 89.8741036,8.50909091 L89.8741036,4.50909091 C89.8741036,3.78181818 89.72749,3.63636364 89.3609562,3.63636364 L88.9211155,3.63636364 L88.9211155,3.27272727 L90.3139442,3.27272727 C90.8270916,3.27272727 91.2669323,3.2 91.7067729,3.05454545 L91.7067729,4.21818182 C92.2199203,3.49090909 92.8796813,3.05454545 93.8326693,3.05454545 C95.1521912,3.05454545 95.7386454,3.85454545 95.7386454,4.87272727 L95.7386454,8.50909091 C95.7386454,9.23636364 95.885259,9.38181818 96.2517928,9.38181818 L96.5450199,9.38181818 L96.5450199,9.74545455 L93.0996016,9.74545455 L93.0996016,9.38181818 L93.3928287,9.38181818 C93.7593625,9.38181818 93.9059761,9.23636364 93.9059761,8.50909091 L93.9059761,5.23636364 C93.9059761,4.58181818 93.9059761,3.85454545 93.0996016,3.85454545 C91.8533865,3.85454545 91.8533865,5.30909091 91.8533865,6.10909091 L91.8533865,8.50909091 C91.8533865,9.23636364 92,9.38181818 92.3665339,9.38181818 L92.659761,9.38181818 L92.659761,9.74545455 L88.9944223,9.74545455 L88.9944223,9.38181818 L88.9211155,9.38181818 Z" id="Path"></path>
                    <path d="M97.1314741,9.38181818 L97.5713147,9.38181818 C97.9378486,9.38181818 98.0844622,9.23636364 98.0844622,8.50909091 L98.0844622,4.50909091 C98.0844622,3.78181818 97.9378486,3.63636364 97.5713147,3.63636364 L97.1314741,3.63636364 L97.1314741,3.27272727 L98.5243028,3.27272727 C99.0374502,3.27272727 99.6972112,3.2 100.063745,3.05454545 C99.9904382,4.07272727 99.9904382,5.09090909 99.9904382,6.10909091 L99.9904382,8.50909091 C99.9904382,9.23636364 100.137052,9.38181818 100.503586,9.38181818 L100.943426,9.38181818 L100.943426,9.74545455 L97.1314741,9.74545455 L97.1314741,9.38181818 Z M99.0374502,0.0727272727 C99.6239044,0.0727272727 100.137052,0.581818182 100.137052,1.16363636 C100.137052,1.74545455 99.6239044,2.25454545 99.0374502,2.25454545 C98.450996,2.25454545 97.9378486,1.74545455 97.9378486,1.16363636 C97.9378486,0.581818182 98.450996,0.0727272727 99.0374502,0.0727272727 Z" id="Shape"></path>
                    <path d="M108.054183,3.63636364 C107.541036,3.63636364 107.394422,4.07272727 107.247809,4.50909091 L105.63506,8.36363636 C105.415139,8.87272727 105.268526,9.30909091 105.121912,9.81818182 L104.242231,9.81818182 C104.095618,9.45454545 104.022311,9.09090909 103.875697,8.8 L102.116335,4.43636364 C101.896414,3.85454545 101.823108,3.56363636 101.456574,3.56363636 L101.163347,3.56363636 L101.163347,3.2 L104.755378,3.2 L104.755378,3.63636364 L104.315538,3.63636364 C104.095618,3.63636364 103.875697,3.70909091 103.875697,3.92727273 C103.875697,4 103.949004,4.14545455 104.022311,4.36363636 L105.341833,7.70909091 L106.661355,4.43636364 C106.734661,4.21818182 106.734661,4.14545455 106.734661,4 C106.734661,3.78181818 106.514741,3.63636364 106.294821,3.63636364 L106.001594,3.63636364 L106.001594,3.27272727 L108.054183,3.27272727 L108.054183,3.63636364 Z" id="Path"></path>
                    <path d="M110.326693,6.54545455 L110.326693,6.83636364 C110.326693,8.14545455 110.473307,9.52727273 111.939442,9.52727273 C113.112351,9.52727273 113.772112,8.58181818 113.772112,7.56363636 L114.358566,7.56363636 C114.211952,9.16363636 113.185657,10.0363636 111.499602,10.0363636 C109.447012,10.0363636 108.274104,8.58181818 108.274104,6.54545455 C108.274104,4.50909091 109.447012,3.05454545 111.499602,3.05454545 C113.698805,3.05454545 114.431873,4.50909091 114.431873,6.54545455 L110.326693,6.54545455 Z M112.45259,6.10909091 C112.45259,4.72727273 112.45259,3.49090909 111.499602,3.49090909 C110.4,3.49090909 110.326693,4.87272727 110.326693,6.10909091 L112.45259,6.10909091 Z" id="Shape"></path>
                    <path d="M118.097211,8.50909091 C118.097211,9.23636364 118.243825,9.38181818 118.610359,9.38181818 L119.196813,9.38181818 L119.196813,9.74545455 L115.238247,9.74545455 L115.238247,9.38181818 L115.678088,9.38181818 C116.044622,9.38181818 116.191235,9.23636364 116.191235,8.50909091 L116.191235,4.50909091 C116.191235,3.78181818 116.044622,3.63636364 115.678088,3.63636364 L115.238247,3.63636364 L115.238247,3.27272727 L116.631076,3.27272727 C117.144223,3.27272727 117.584064,3.2 118.023904,3.05454545 L118.023904,4.50909091 L118.097211,4.50909091 C118.390438,3.85454545 118.976892,3.12727273 119.856574,3.12727273 C120.443028,3.12727273 121.176096,3.41818182 121.176096,4.21818182 C121.176096,4.8 120.736255,5.16363636 120.076494,5.16363636 C119.783267,5.16363636 119.196813,5.01818182 119.196813,4.36363636 C119.196813,4.14545455 119.196813,4.07272727 119.050199,4.07272727 C118.683665,4.07272727 118.097211,4.94545455 118.097211,6.32727273 L118.097211,8.50909091 Z" id="Path"></path>
                    <path d="M121.76255,7.63636364 L122.20239,7.63636364 C122.495618,8.72727273 123.082072,9.52727273 124.328287,9.52727273 C124.988048,9.52727273 125.647809,9.16363636 125.647809,8.50909091 C125.647809,7.70909091 124.988048,7.49090909 123.741833,7.2 C122.788845,6.98181818 121.835857,6.61818182 121.835857,5.30909091 C121.835857,3.78181818 123.008765,3.05454545 124.401594,3.05454545 C124.988048,3.05454545 125.427888,3.27272727 125.867729,3.27272727 C126.234263,3.27272727 126.454183,3.2 126.600797,3.05454545 L126.674104,3.05454545 L126.674104,5.16363636 L126.234263,5.16363636 C126.087649,4.29090909 125.427888,3.49090909 124.4749,3.49090909 C123.815139,3.49090909 123.155378,3.70909091 123.155378,4.50909091 C123.155378,5.16363636 123.521912,5.23636364 124.988048,5.6 C126.160956,5.89090909 127.040637,6.25454545 127.040637,7.70909091 C127.040637,9.23636364 125.721116,9.89090909 124.401594,9.89090909 C123.815139,9.89090909 123.082072,9.67272727 122.568924,9.67272727 C122.275697,9.67272727 122.055777,9.81818182 121.909163,9.89090909 L121.835857,9.89090909 L121.835857,7.63636364 L121.76255,7.63636364 Z" id="Path"></path>
                    <path d="M127.773705,9.38181818 L128.213546,9.38181818 C128.58008,9.38181818 128.726693,9.23636364 128.726693,8.50909091 L128.726693,4.50909091 C128.726693,3.78181818 128.58008,3.63636364 128.213546,3.63636364 L127.773705,3.63636364 L127.773705,3.27272727 L129.166534,3.27272727 C129.679681,3.27272727 130.339442,3.2 130.705976,3.05454545 C130.632669,4.07272727 130.632669,5.09090909 130.632669,6.10909091 L130.632669,8.50909091 C130.632669,9.23636364 130.779283,9.38181818 131.145817,9.38181818 L131.585657,9.38181818 L131.585657,9.74545455 L127.773705,9.74545455 L127.773705,9.38181818 Z M129.679681,0.0727272727 C130.266135,0.0727272727 130.779283,0.581818182 130.779283,1.16363636 C130.779283,1.74545455 130.266135,2.25454545 129.679681,2.25454545 C129.093227,2.25454545 128.58008,1.74545455 128.58008,1.16363636 C128.58008,0.581818182 129.01992,0.0727272727 129.679681,0.0727272727 Z" id="Shape"></path>
                    <path d="M136.203984,3.63636364 L134.811155,3.63636364 L134.811155,7.85454545 C134.811155,8.65454545 134.811155,9.23636364 135.39761,9.23636364 C135.910757,9.23636364 135.984064,8.72727273 135.984064,8.29090909 L135.984064,7.85454545 L136.497211,7.85454545 L136.497211,8.14545455 C136.497211,9.45454545 135.984064,10.0363636 134.811155,10.0363636 C133.491633,10.0363636 132.978486,9.23636364 132.978486,8.36363636 L132.978486,3.63636364 L132.025498,3.63636364 L132.025498,3.27272727 C133.34502,3.2 134.151394,1.96363636 134.444622,0.8 L134.811155,0.8 L134.811155,3.27272727 L136.203984,3.27272727 L136.203984,3.63636364 Z" id="Path"></path>
                    <path d="M143.754582,3.63636364 C143.241434,3.63636364 143.094821,4.07272727 142.948207,4.50909091 L140.38247,10.9818182 C139.942629,12.1454545 139.576096,12.8 138.32988,12.8 C137.67012,12.8 137.010359,12.2909091 137.010359,11.6363636 C137.010359,11.0545455 137.376892,10.6909091 137.89004,10.6909091 C138.476494,10.6909091 138.696414,11.0545455 138.696414,11.4909091 C138.696414,11.7818182 138.476494,11.9272727 138.476494,12.1454545 C138.476494,12.2909091 138.549801,12.3636364 138.696414,12.3636364 C139.062948,12.3636364 139.429482,11.7090909 139.722709,10.9090909 L140.015936,10.0363636 L137.89004,4.58181818 C137.743426,4.29090909 137.596813,3.63636364 137.156972,3.63636364 L136.863745,3.63636364 L136.863745,3.27272727 L140.455777,3.27272727 L140.455777,3.63636364 L140.235857,3.63636364 C139.942629,3.63636364 139.649402,3.63636364 139.649402,3.92727273 C139.649402,4 139.649402,4.07272727 139.722709,4.21818182 L140.968924,7.56363636 L142.141833,4.50909091 C142.215139,4.29090909 142.288446,4.14545455 142.288446,4 C142.288446,3.63636364 142.068526,3.56363636 141.848606,3.56363636 L141.555378,3.56363636 L141.555378,3.2 L143.681275,3.2 L143.681275,3.63636364 L143.754582,3.63636364 Z" id="Path"></path>
                    <path d="M4.3250996,17.9636364 C6.37768924,17.9636364 7.55059761,19.4181818 7.55059761,21.4545455 C7.55059761,23.4909091 6.37768924,24.9454545 4.3250996,24.9454545 C2.27250996,24.9454545 1.09960159,23.4909091 1.09960159,21.4545455 C1.09960159,19.4181818 2.27250996,17.9636364 4.3250996,17.9636364 Z M4.3250996,24.4363636 C5.27808765,24.4363636 5.57131474,23.6363636 5.57131474,21.4545455 C5.57131474,18.9090909 4.98486056,18.4727273 4.3250996,18.4727273 C3.66533865,18.4727273 3.07888446,18.9090909 3.07888446,21.4545455 C3.07888446,23.7090909 3.37211155,24.4363636 4.3250996,24.4363636 Z" id="Shape"></path>
                    <path d="M9.30996016,18.5454545 L8.35697211,18.5454545 L8.35697211,18.1818182 L9.30996016,18.1818182 L9.30996016,17.6 C9.30996016,15.9272727 10.1163347,14.8363636 11.8756972,14.8363636 C12.7553785,14.8363636 13.9282869,15.2 13.9282869,16.2181818 C13.9282869,16.8 13.561753,17.1636364 13.0486056,17.1636364 C12.5354582,17.1636364 12.1689243,16.8727273 12.1689243,16.3636364 C12.1689243,15.7818182 12.5354582,15.7818182 12.5354582,15.4909091 C12.5354582,15.2727273 12.2422311,15.2 12.0956175,15.2 C11.1426295,15.1272727 11.2159363,16.3636364 11.2159363,17.0181818 L11.2159363,18.1818182 L12.4621514,18.1818182 L12.4621514,18.5454545 L11.2159363,18.5454545 L11.2159363,23.4181818 C11.2159363,24.1454545 11.3625498,24.2909091 11.7290837,24.2909091 L12.4621514,24.2909091 L12.4621514,24.6545455 L8.35697211,24.6545455 L8.35697211,24.2909091 L8.79681275,24.2909091 C9.16334661,24.2909091 9.30996016,24.1454545 9.30996016,23.4181818 L9.30996016,18.5454545 Z" id="Path"></path>
                    <path d="M22.2119522,24.2909091 C22.7984064,24.2909091 23.1649402,24.2909091 23.1649402,23.9272727 C23.1649402,23.7090909 22.9450199,23.2 22.7250996,22.5454545 L22.3585657,21.6727273 L19.059761,21.6727273 L18.6932271,22.5454545 C18.4733068,22.9818182 18.3266932,23.4909091 18.3266932,23.7818182 C18.3266932,24.1454545 18.6199203,24.2909091 19.059761,24.3636364 L19.4262948,24.3636364 L19.4262948,24.7272727 L16.5673307,24.7272727 L16.5673307,24.3636364 C17.2270916,24.3636364 17.447012,24 17.8868526,22.9818182 L20.4525896,16.8727273 C20.67251,16.3636364 20.8924303,15.8545455 21.0390438,15.3454545 L22.2119522,15.3454545 C22.3585657,16 22.5784861,16.5818182 22.7984064,17.1636364 L25.2175299,23.4181818 C25.3641434,23.8545455 25.5840637,24.3636364 26.0972112,24.3636364 L26.3904382,24.3636364 L26.3904382,24.7272727 L22.2119522,24.7272727 L22.2119522,24.2909091 Z M20.8191235,17.5272727 L19.2796813,21.2363636 L22.285259,21.2363636 L20.8191235,17.5272727 Z" id="Shape"></path>
                    <path d="M26.5370518,27.1272727 L26.9768924,27.1272727 C27.4167331,27.1272727 27.4900398,26.6909091 27.4900398,26.0363636 L27.4900398,20.3636364 C27.4900398,18.9818182 27.5633466,18.5454545 26.9035857,18.5454545 L26.6103586,18.5454545 L26.6103586,18.1818182 L27.7832669,18.1818182 C28.3697211,18.1818182 28.8828685,18.1090909 29.3960159,17.9636364 L29.3960159,19.2 C29.7625498,18.3272727 30.4956175,17.9636364 31.301992,17.9636364 C33.2079681,17.9636364 33.8677291,19.7818182 33.8677291,21.4545455 C33.8677291,23.0545455 33.2079681,24.8727273 31.3752988,24.8727273 C30.5689243,24.8727273 29.7625498,24.5090909 29.4693227,23.8545455 L29.4693227,25.7454545 C29.4693227,26.8363636 29.4693227,27.2 29.9824701,27.2 L30.4223108,27.2 L30.4223108,27.5636364 L26.6103586,27.5636364 L26.6103586,27.1272727 L26.5370518,27.1272727 Z M30.7155378,24.2181818 C31.7418327,24.2181818 31.7418327,21.8181818 31.7418327,21.2363636 C31.7418327,20.5818182 31.7418327,18.6181818 30.7155378,18.6181818 C29.4693227,18.6181818 29.3960159,20.4363636 29.3960159,21.3090909 C29.3960159,22.1818182 29.3960159,24.2181818 30.7155378,24.2181818 Z" id="Shape"></path>
                    <path d="M34.52749,27.1272727 L34.9673307,27.1272727 C35.4071713,27.1272727 35.4804781,26.6909091 35.4804781,26.0363636 L35.4804781,20.3636364 C35.4804781,18.9818182 35.5537849,18.5454545 34.8940239,18.5454545 L34.6007968,18.5454545 L34.6007968,18.1818182 L35.7737052,18.1818182 C36.3601594,18.1818182 36.8733068,18.1090909 37.3864542,17.9636364 L37.3864542,19.2 C37.752988,18.3272727 38.4860558,17.9636364 39.2924303,17.9636364 C41.1984064,17.9636364 41.8581673,19.7818182 41.8581673,21.4545455 C41.8581673,23.0545455 41.1984064,24.8727273 39.3657371,24.8727273 C38.5593625,24.8727273 37.752988,24.5090909 37.459761,23.8545455 L37.459761,25.7454545 C37.459761,26.8363636 37.459761,27.2 37.9729084,27.2 L38.412749,27.2 L38.412749,27.5636364 L34.6007968,27.5636364 L34.6007968,27.1272727 L34.52749,27.1272727 Z M38.7792829,24.2181818 C39.8055777,24.2181818 39.8055777,21.8181818 39.8055777,21.2363636 C39.8055777,20.5818182 39.8055777,18.6181818 38.7792829,18.6181818 C37.5330677,18.6181818 37.459761,20.4363636 37.459761,21.3090909 C37.3864542,22.1818182 37.459761,24.2181818 38.7792829,24.2181818 Z" id="Shape"></path>
                    <path d="M42.5179283,24.2909091 L42.9577689,24.2909091 C43.3243028,24.2909091 43.4709163,24.1454545 43.4709163,23.4181818 L43.4709163,16.2181818 C43.4709163,15.4909091 43.3243028,15.3454545 42.9577689,15.3454545 L42.5179283,15.3454545 L42.5179283,14.9818182 L45.3768924,14.9818182 L45.3768924,23.4181818 C45.3768924,24.1454545 45.523506,24.2909091 45.8900398,24.2909091 L46.3298805,24.2909091 L46.3298805,24.6545455 L42.5179283,24.6545455 L42.5179283,24.2909091 Z" id="Path"></path>
                    <path d="M46.6231076,24.2909091 L47.0629482,24.2909091 C47.4294821,24.2909091 47.5760956,24.1454545 47.5760956,23.4181818 L47.5760956,19.4181818 C47.5760956,18.6909091 47.4294821,18.5454545 47.0629482,18.5454545 L46.6231076,18.5454545 L46.6231076,18.1818182 L48.0159363,18.1818182 C48.5290837,18.1818182 49.1888446,18.1090909 49.5553785,17.9636364 C49.4820717,18.9818182 49.4820717,20 49.4820717,21.0181818 L49.4820717,23.4181818 C49.4820717,24.1454545 49.6286853,24.2909091 49.9952191,24.2909091 L50.4350598,24.2909091 L50.4350598,24.6545455 L46.6231076,24.6545455 L46.6231076,24.2909091 Z M48.5290837,14.9818182 C49.1155378,14.9818182 49.6286853,15.4909091 49.6286853,16.0727273 C49.6286853,16.6545455 49.1155378,17.1636364 48.5290837,17.1636364 C47.9426295,17.1636364 47.4294821,16.6545455 47.4294821,16.0727273 C47.4294821,15.4909091 47.9426295,14.9818182 48.5290837,14.9818182 Z" id="Shape"></path>
                    <path d="M53.2207171,21.4545455 L53.2207171,21.7454545 C53.2207171,23.0545455 53.3673307,24.4363636 54.8334661,24.4363636 C56.0063745,24.4363636 56.6661355,23.4909091 56.6661355,22.4727273 L57.2525896,22.4727273 C57.1059761,24.0727273 56.0796813,24.9454545 54.3936255,24.9454545 C52.3410359,24.9454545 51.1681275,23.4909091 51.1681275,21.4545455 C51.1681275,19.4181818 52.3410359,17.9636364 54.3936255,17.9636364 C56.5928287,17.9636364 57.3258964,19.4181818 57.3258964,21.4545455 L53.2207171,21.4545455 Z M55.2733068,21.0909091 C55.2733068,19.7090909 55.2733068,18.4727273 54.3203187,18.4727273 C53.2207171,18.4727273 53.1474104,19.8545455 53.1474104,21.0909091 L55.2733068,21.0909091 Z" id="Shape"></path>
                    <path d="M62.9705179,23.7090909 C62.6772908,24.5090909 61.8709163,24.8727273 60.9912351,24.8727273 C59.1585657,24.8727273 58.4988048,22.9818182 58.4988048,21.4545455 C58.4988048,19.7818182 59.1585657,17.9636364 61.0645418,17.9636364 C61.8709163,17.9636364 62.5306773,18.3272727 62.8972112,19.0545455 L62.8972112,16.2909091 C62.8972112,15.6363636 62.8972112,15.4181818 62.3840637,15.4181818 L61.9442231,15.4181818 L61.9442231,15.0545455 L64.7298805,15.0545455 L64.7298805,23.4909091 C64.7298805,24.2909091 64.9498008,24.3636364 65.2430279,24.3636364 L65.6828685,24.3636364 L65.6828685,24.7272727 L62.8972112,24.7272727 L62.8972112,23.7090909 L62.9705179,23.7090909 Z M61.5043825,24.2181818 C62.8239044,24.2181818 62.8239044,22.1090909 62.8239044,21.2363636 C62.8239044,20.3636364 62.7505976,18.5454545 61.5043825,18.5454545 C60.4780876,18.5454545 60.4780876,20.5818182 60.4780876,21.1636364 C60.4780876,21.8909091 60.4780876,24.2181818 61.5043825,24.2181818 Z" id="Shape"></path>
                    <path d="M70.5944223,22.2545455 L71.1075697,22.2545455 C71.1075697,23.5636364 72.2804781,24.5090909 73.6,24.5090909 C74.6996016,24.5090909 75.4326693,23.8545455 75.4326693,22.8363636 C75.4326693,20.4363636 70.5211155,21.5272727 70.5211155,18.1090909 C70.5211155,16.2909091 71.9139442,15.3454545 73.6,15.3454545 C74.3330677,15.3454545 75.1394422,15.7090909 75.5792829,15.7090909 C75.7992032,15.7090909 75.9458167,15.5636364 75.9458167,15.4181818 L76.3856574,15.4181818 L76.3856574,17.7454545 L75.87251,17.7454545 C75.7992032,16.5818182 74.8462151,15.7818182 73.6733068,15.7818182 C72.7936255,15.7818182 71.8406375,16.2181818 71.8406375,17.2363636 C71.8406375,19.4909091 76.825498,18.3272727 76.825498,22.1090909 C76.825498,23.9272727 75.2860558,25.0181818 73.6,25.0181818 C72.7203187,25.0181818 71.8406375,24.6545455 71.32749,24.6545455 C71.1075697,24.6545455 71.0342629,24.7272727 70.9609562,24.9454545 L70.5211155,24.9454545 L70.5211155,22.2545455 L70.5944223,22.2545455 Z" id="Path"></path>
                    <path d="M83.936255,22.4727273 C83.7896414,24.0727273 82.8366534,24.8727273 81.2239044,24.8727273 C79.098008,24.8727273 78.1450199,23.2727273 78.1450199,21.3090909 C78.1450199,18.8363636 79.9043825,17.8909091 81.5171315,17.8909091 C83.3498008,17.8909091 83.8629482,18.8363636 83.8629482,19.3454545 C83.8629482,20 83.5697211,20.4363636 82.8366534,20.4363636 C82.323506,20.4363636 81.9569721,20.0727273 81.9569721,19.5636364 C81.9569721,19.2 82.1035857,19.1272727 82.1035857,18.9818182 C82.1035857,18.6909091 81.663745,18.4727273 81.3705179,18.4727273 C80.2709163,18.4727273 80.1976096,20.0727273 80.1976096,21.6 C80.1976096,22.6181818 80.1976096,24.5090909 81.663745,24.5090909 C82.8366534,24.5090909 83.3498008,23.6363636 83.4231076,22.5454545 L83.936255,22.5454545 L83.936255,22.4727273 Z" id="Path"></path>
                    <path d="M84.5227092,24.2909091 L84.9625498,24.2909091 C85.3290837,24.2909091 85.4756972,24.1454545 85.4756972,23.4181818 L85.4756972,19.4181818 C85.4756972,18.6909091 85.3290837,18.5454545 84.9625498,18.5454545 L84.5227092,18.5454545 L84.5227092,18.1818182 L85.9155378,18.1818182 C86.4286853,18.1818182 87.0884462,18.1090909 87.4549801,17.9636364 C87.3816733,18.9818182 87.3816733,20 87.3816733,21.0181818 L87.3816733,23.4181818 C87.3816733,24.1454545 87.5282869,24.2909091 87.8948207,24.2909091 L88.3346614,24.2909091 L88.3346614,24.6545455 L84.5227092,24.6545455 L84.5227092,24.2909091 Z M86.4286853,14.9818182 C87.0151394,14.9818182 87.5282869,15.4909091 87.5282869,16.0727273 C87.5282869,16.6545455 87.0151394,17.1636364 86.4286853,17.1636364 C85.8422311,17.1636364 85.3290837,16.6545455 85.3290837,16.0727273 C85.3290837,15.4909091 85.8422311,14.9818182 86.4286853,14.9818182 Z" id="Shape"></path>
                    <path d="M91.1203187,21.4545455 L91.1203187,21.7454545 C91.1203187,23.0545455 91.2669323,24.4363636 92.7330677,24.4363636 C93.9059761,24.4363636 94.5657371,23.4909091 94.5657371,22.4727273 L95.1521912,22.4727273 C95.0055777,24.0727273 93.9792829,24.9454545 92.2932271,24.9454545 C90.2406375,24.9454545 89.0677291,23.4909091 89.0677291,21.4545455 C89.0677291,19.4181818 90.2406375,17.9636364 92.2932271,17.9636364 C94.4924303,17.9636364 95.225498,19.4181818 95.225498,21.4545455 L91.1203187,21.4545455 Z M93.2462151,21.0909091 C93.2462151,19.7090909 93.2462151,18.4727273 92.2932271,18.4727273 C91.1936255,18.4727273 91.1203187,19.8545455 91.1203187,21.0909091 L93.2462151,21.0909091 Z" id="Shape"></path>
                    <path d="M96.1051793,24.2909091 L96.5450199,24.2909091 C96.9115538,24.2909091 97.0581673,24.1454545 97.0581673,23.4181818 L97.0581673,19.4181818 C97.0581673,18.6909091 96.9115538,18.5454545 96.5450199,18.5454545 L96.1051793,18.5454545 L96.1051793,18.1818182 L97.498008,18.1818182 C98.0111554,18.1818182 98.450996,18.1090909 98.8908367,17.9636364 L98.8908367,19.1272727 C99.4039841,18.4 100.063745,17.9636364 101.016733,17.9636364 C102.336255,17.9636364 102.922709,18.7636364 102.922709,19.7818182 L102.922709,23.4181818 C102.922709,24.1454545 103.069323,24.2909091 103.435857,24.2909091 L103.729084,24.2909091 L103.729084,24.6545455 L100.210359,24.6545455 L100.210359,24.2909091 L100.503586,24.2909091 C100.87012,24.2909091 101.016733,24.1454545 101.016733,23.4181818 L101.016733,20.1454545 C101.016733,19.4909091 101.016733,18.7636364 100.210359,18.7636364 C98.9641434,18.7636364 98.9641434,20.2181818 98.9641434,21.0181818 L98.9641434,23.4181818 C98.9641434,24.1454545 99.110757,24.2909091 99.4772908,24.2909091 L99.7705179,24.2909091 L99.7705179,24.6545455 L96.1051793,24.6545455 L96.1051793,24.2909091 Z" id="Path"></path>
                    <path d="M110.253386,22.4727273 C110.033466,24.0727273 109.153785,24.8727273 107.541036,24.8727273 C105.415139,24.8727273 104.462151,23.2727273 104.462151,21.3090909 C104.462151,18.8363636 106.221514,17.8909091 107.834263,17.8909091 C109.666932,17.8909091 110.18008,18.8363636 110.18008,19.3454545 C110.18008,20 109.886853,20.4363636 109.153785,20.4363636 C108.640637,20.4363636 108.274104,20.0727273 108.274104,19.5636364 C108.274104,19.2 108.420717,19.1272727 108.420717,18.9818182 C108.420717,18.6909091 107.980876,18.4727273 107.687649,18.4727273 C106.588048,18.4727273 106.514741,20.0727273 106.514741,21.6 C106.514741,22.6181818 106.514741,24.5090909 107.980876,24.5090909 C109.153785,24.5090909 109.666932,23.6363636 109.740239,22.5454545 L110.253386,22.5454545 L110.253386,22.4727273 Z" id="Path"></path>
                    <path d="M113.185657,21.4545455 L113.185657,21.7454545 C113.185657,23.0545455 113.332271,24.4363636 114.798406,24.4363636 C115.971315,24.4363636 116.631076,23.4909091 116.631076,22.4727273 L117.21753,22.4727273 C117.070916,24.0727273 116.044622,24.9454545 114.358566,24.9454545 C112.305976,24.9454545 111.133068,23.4909091 111.133068,21.4545455 C111.133068,19.4181818 112.305976,17.9636364 114.358566,17.9636364 C116.557769,17.9636364 117.290837,19.4181818 117.290837,21.4545455 L113.185657,21.4545455 Z M115.238247,21.0909091 C115.238247,19.7090909 115.238247,18.4727273 114.285259,18.4727273 C113.185657,18.4727273 113.112351,19.8545455 113.112351,21.0909091 L115.238247,21.0909091 Z" id="Shape"></path>
                    <path d="M118.390438,22.5454545 L118.830279,22.5454545 C119.123506,23.6363636 119.70996,24.4363636 120.956175,24.4363636 C121.615936,24.4363636 122.275697,24.0727273 122.275697,23.4181818 C122.275697,22.6181818 121.615936,22.4 120.369721,22.1090909 C119.416733,21.8909091 118.463745,21.5272727 118.463745,20.2181818 C118.463745,18.6909091 119.636653,17.9636364 121.029482,17.9636364 C121.615936,17.9636364 122.055777,18.1818182 122.495618,18.1818182 C122.862151,18.1818182 123.082072,18.1090909 123.228685,17.9636364 L123.301992,17.9636364 L123.301992,20.0727273 L122.862151,20.0727273 C122.715538,19.2 122.055777,18.4 121.102789,18.4 C120.443028,18.4 119.783267,18.6181818 119.783267,19.4181818 C119.783267,20.0727273 120.149801,20.1454545 121.615936,20.5090909 C122.788845,20.8 123.668526,21.1636364 123.668526,22.6181818 C123.668526,24.1454545 122.349004,24.8 121.029482,24.8 C120.443028,24.8 119.70996,24.5818182 119.196813,24.5818182 C118.903586,24.5818182 118.683665,24.7272727 118.537052,24.8 L118.463745,24.8 L118.463745,22.5454545 L118.390438,22.5454545 Z" id="Path"></path>
                </g>
            </g>
        </g>
    </g>
</svg>