<svg width="184" height="32" xmlns="http://www.w3.org/2000/svg"><g fill="#000" fill-rule="nonzero"><path d="M17.3 7.636c4.472 0 8.724 1.237 12.316 3.273L33.5 4.364A32.307 32.307 0 0 0 17.301 0C11.362 0 5.864 1.6 1.1 4.364l3.885 6.545C8.577 8.8 12.829 7.636 17.3 7.636z"/><path d="M20.892 11.2c-1.539 0-6.304-.073-12.462 2.69-.806.365-1.32.655-1.466.437-.293-.436 1.686-2.036 3.812-3.272.733-.437 1.173-.8 1.026-1.164-.22-.51-1.759-.582-5.937 1.527-2.2 1.31-4.179 2.764-5.792 4.582l.66.655c.66-.728 1.393-1.382 2.126-2.037.513-.436 2.786-2.109 3.006-1.6.073.218-.074.51-.88 1.6-.733.946-1.173 1.891-.807 2.182.367.29.734.145 1.687-.436.733-.364 2.932-1.6 6.45-2.619 3.52-1.018 4.399-.654 4.472-.363.074.363-1.54.945-2.492 1.382-.807.436-3.666 2.036-5.205 3.272l1.466 2.546c1.613-.946 7.624-2.473 8.284-1.382.733 1.236-5.718 5.673-5.718 5.673l4.105 6.982s9.31-10.619 7.844-12.946c-1.466-2.327-7.11-1.89-9.31-1.673-.586.073-1.32.219-1.466-.145-.147-.364 0-1.673 7.55-3.418 1.686-.364 2.346-.582 2.2-1.31-.074-.581-1.613-1.09-3.153-1.163zM45.524 13.745c.586 0 .952 0 .952-.363 0-.218-.22-.727-.44-1.382l-.366-.873h-3.372l-.367.8c-.146.437-.366.946-.366 1.237 0 .363.293.509.733.581h.367v.364h-2.86v-.364c.66 0 .954-.363 1.32-1.381l2.566-6.11c.22-.509.44-1.018.586-1.527h1.173c.293.655.513 1.237.733 1.818l2.42 6.255c.146.436.366.945.88.945h.292v.364h-4.178v-.364h-.073zM44.13 6.982l-1.54 3.709h3.006L44.13 6.98zM49.849 13.745h.44c.366 0 .513-.145.513-.872v-4c0-.728-.147-.873-.514-.873h-.44v-.364h1.393a4.3 4.3 0 0 0 1.393-.218v1.164c.513-.727 1.173-1.164 2.126-1.164.88 0 1.54.291 1.76 1.164.586-.8 1.1-1.164 2.199-1.164 1.32 0 1.906.8 1.906 1.818v3.637c0 .727.146.872.513.872h.293v.364h-3.519v-.364h.294c.366 0 .513-.145.513-.872V9.6c0-.655 0-1.382-.807-1.382-1.246 0-1.246 1.455-1.246 2.255v2.4c0 .727.147.872.513.872h.294v.364h-3.52v-.364h.294c.367 0 .513-.145.513-.872V9.6c0-.655 0-1.382-.806-1.382-1.246 0-1.246 1.455-1.246 2.255v2.4c0 .727.146.872.513.872h.293v.364h-3.665v-.364zM62.31 12h.44c.294 1.09.88 1.89 2.126 1.89.66 0 1.32-.363 1.32-1.017 0-.8-.66-1.018-1.906-1.31-.953-.218-1.906-.581-1.906-1.89 0-1.528 1.173-2.255 2.566-2.255.586 0 1.026.218 1.466.218.366 0 .586-.072.733-.218h.073v2.11h-.513c-.146-.873-.806-1.673-1.76-1.673-.659 0-1.319.218-1.319 1.018 0 .654.367.727 1.833 1.09 1.173.292 2.053.655 2.053 2.11 0 1.527-1.32 2.182-2.713 2.182-.586 0-1.32-.219-1.832-.219-.294 0-.514.146-.66.219V12zM72.574 8H71.18v4.218c0 .8 0 1.382.586 1.382.513 0 .587-.51.587-.945v-.437h.513v.291c0 1.31-.513 1.891-1.686 1.891-1.32 0-1.833-.8-1.833-1.673V8h-.953v-.364c1.32-.072 2.126-1.309 2.42-2.472h.366v2.472h1.393V8zM75.726 10.91v.29c0 1.31.147 2.69 1.613 2.69 1.173 0 1.832-.945 1.832-1.963h.587c-.147 1.6-1.173 2.473-2.86 2.473-2.052 0-3.225-1.455-3.225-3.49 0-2.037 1.173-3.492 3.226-3.492 2.199 0 2.932 1.455 2.932 3.491h-4.105zm2.126-.437c0-1.382 0-2.618-.953-2.618-1.1 0-1.173 1.381-1.173 2.618h2.126zM83.57 12.873c0 .727.146.872.513.872h.586v.364h-3.958v-.364h.44c.366 0 .513-.145.513-.872v-4c0-.728-.147-.873-.513-.873h-.44v-.364h1.393a4.3 4.3 0 0 0 1.392-.218v1.455h.074c.293-.655.88-1.382 1.76-1.382.586 0 1.319.29 1.319 1.09 0 .583-.44.946-1.1.946-.293 0-.88-.145-.88-.8 0-.218 0-.29-.146-.29-.367 0-.953.872-.953 2.254v2.182zM91.853 13.164c-.293.8-1.1 1.163-1.979 1.163-1.833 0-2.492-1.89-2.492-3.418 0-1.673.66-3.49 2.565-3.49.807 0 1.467.363 1.833 1.09V5.673c0-.655 0-.873-.513-.873h-.44v-.364h2.786v8.437c0 .8.146.872.513.872h.44v.364H91.78v-.945h.073zm-1.466.509c1.32 0 1.32-2.11 1.32-2.982 0-.873-.074-2.691-1.32-2.691-1.026 0-1.026 2.036-1.026 2.618 0 .727 0 3.055 1.026 3.055zM102.336 12.29c0 .874 0 2.037-1.612 2.037-.514 0-1.173-.29-1.393-.872-.367.654-1.173.872-1.906.872-1.1 0-2.053-.654-2.053-1.818 0-1.673 1.906-2.254 3.299-2.254h.586V8.873c0-.582-.22-1.018-.88-1.018-.293 0-.879.072-.879.363 0 .146.293.364.293.727 0 .582-.44.873-.953.873-.586 0-.953-.363-.953-.945 0-1.237 1.686-1.528 2.64-1.528 1.246 0 2.712.291 2.712 1.819v3.927c0 .364.146.509.293.509.44 0 .44-.655.44-1.31h.366zm-3.152-1.6c-.147-.072-.293-.072-.366-.072-1.027 0-1.54.727-1.54 1.891 0 .582.22 1.164.88 1.164.366 0 1.026-.218 1.026-1.31v-1.672zM102.85 13.745h.44c.366 0 .512-.145.512-.872v-4c0-.728-.146-.873-.513-.873h-.44v-.364h1.393a4.3 4.3 0 0 0 1.393-.218v1.164c.513-.727 1.173-1.164 2.126-1.164.88 0 1.54.291 1.76 1.164.586-.8 1.099-1.164 2.199-1.164 1.319 0 1.905.8 1.905 1.818v3.637c0 .727.147.872.514.872h.293v.364h-3.519v-.364h.293c.367 0 .514-.145.514-.872V9.6c0-.655 0-1.382-.807-1.382-1.246 0-1.246 1.455-1.246 2.255v2.4c0 .727.147.872.513.872h.293v.364h-3.518v-.364h.293c.366 0 .513-.145.513-.872V9.6c0-.655 0-1.382-.806-1.382-1.247 0-1.247 1.455-1.247 2.255v2.4c0 .727.147.872.514.872h.293v.364h-3.666v-.364zM127.994 5.236h-.367c-.66 0-.66.364-.66 2.037V11.2c0 1.89-1.246 3.2-3.298 3.2-2.42 0-3.666-1.31-3.666-3.2V7.273c0-1.673 0-2.037-.66-2.037h-.366v-.363h4.032v.363h-.367c-.66 0-.66.364-.66 2.037v4.145c0 1.746.953 2.4 2.053 2.4 1.246 0 2.346-.873 2.346-2.763V7.273c0-1.673 0-2.037-.66-2.037h-.366v-.363h2.565v.363h.074zM128.507 13.745h.44c.366 0 .513-.145.513-.872v-4c0-.728-.147-.873-.513-.873h-.44v-.364h1.393a4.3 4.3 0 0 0 1.392-.218v1.164c.514-.727 1.173-1.164 2.126-1.164 1.32 0 1.906.8 1.906 1.818v3.637c0 .727.147.872.513.872h.294v.364h-3.446v-.364h.293c.367 0 .514-.145.514-.872V9.6c0-.655 0-1.382-.807-1.382-1.246 0-1.246 1.455-1.246 2.255v2.4c0 .727.147.872.513.872h.293v.364h-3.665v-.364h-.073zM136.717 13.745h.44c.367 0 .513-.145.513-.872v-4c0-.728-.146-.873-.513-.873h-.44v-.364h1.393c.513 0 1.173-.072 1.54-.218-.074 1.018-.074 2.037-.074 3.055v2.4c0 .727.147.872.513.872h.44v.364h-3.812v-.364zm1.906-9.309c.587 0 1.1.51 1.1 1.091 0 .582-.513 1.091-1.1 1.091-.586 0-1.1-.509-1.1-1.09 0-.583.514-1.092 1.1-1.092zM147.64 8c-.513 0-.66.436-.807.873l-1.612 3.854c-.22.51-.367.946-.513 1.455h-.88c-.147-.364-.22-.727-.367-1.018L141.702 8.8c-.22-.582-.293-.873-.66-.873h-.293v-.363h3.592V8h-.44c-.22 0-.44.073-.44.29 0 .074.074.22.147.437l1.32 3.346 1.319-3.273c.073-.218.073-.29.073-.436 0-.219-.22-.364-.44-.364h-.293v-.364h2.053V8zM149.912 10.91v.29c0 1.31.147 2.69 1.613 2.69 1.173 0 1.833-.945 1.833-1.963h.586c-.146 1.6-1.173 2.473-2.859 2.473-2.052 0-3.225-1.455-3.225-3.49 0-2.037 1.173-3.492 3.225-3.492 2.2 0 2.933 1.455 2.933 3.491h-4.106zm2.126-.437c0-1.382 0-2.618-.953-2.618-1.1 0-1.173 1.381-1.173 2.618h2.126zM157.683 12.873c0 .727.146.872.513.872h.586v.364h-3.958v-.364h.44c.366 0 .513-.145.513-.872v-4c0-.728-.147-.873-.513-.873h-.44v-.364h1.393a4.3 4.3 0 0 0 1.393-.218v1.455h.073c.293-.655.88-1.382 1.76-1.382.586 0 1.319.29 1.319 1.09 0 .583-.44.946-1.1.946-.293 0-.88-.145-.88-.8 0-.218 0-.29-.146-.29-.367 0-.953.872-.953 2.254v2.182zM161.348 12h.44c.293 1.09.88 1.89 2.126 1.89.66 0 1.32-.363 1.32-1.017 0-.8-.66-1.018-1.907-1.31-.952-.218-1.905-.581-1.905-1.89 0-1.528 1.172-2.255 2.565-2.255.587 0 1.027.218 1.466.218.367 0 .587-.072.733-.218h.074v2.11h-.44c-.147-.873-.806-1.673-1.76-1.673-.66 0-1.319.218-1.319 1.018 0 .654.367.727 1.833 1.09 1.173.292 2.052.655 2.052 2.11 0 1.527-1.32 2.182-2.639 2.182-.586 0-1.32-.219-1.832-.219-.294 0-.514.146-.66.219h-.073V12h-.074zM167.36 13.745h.44c.366 0 .512-.145.512-.872v-4c0-.728-.146-.873-.513-.873h-.44v-.364h1.393c.513 0 1.173-.072 1.54-.218-.074 1.018-.074 2.037-.074 3.055v2.4c0 .727.147.872.513.872h.44v.364h-3.812v-.364zm1.905-9.309c.587 0 1.1.51 1.1 1.091 0 .582-.513 1.091-1.1 1.091-.586 0-1.1-.509-1.1-1.09 0-.583.44-1.092 1.1-1.092zM175.79 8h-1.393v4.218c0 .8 0 1.382.586 1.382.513 0 .587-.51.587-.945v-.437h.513v.291c0 1.31-.513 1.891-1.686 1.891-1.32 0-1.833-.8-1.833-1.673V8h-.953v-.364c1.32-.072 2.126-1.309 2.42-2.472h.366v2.472h1.393V8zM183.34 8c-.513 0-.66.436-.806.873l-2.566 6.472c-.44 1.164-.806 1.819-2.052 1.819-.66 0-1.32-.51-1.32-1.164 0-.582.367-.945.88-.945.586 0 .806.363.806.8 0 .29-.22.436-.22.654 0 .146.073.218.22.218.367 0 .733-.654 1.026-1.454l.294-.873-2.126-5.455c-.147-.29-.294-.945-.733-.945h-.294v-.364h3.592V8h-.22c-.293 0-.586 0-.586.29 0 .074 0 .146.073.292l1.247 3.345 1.172-3.054c.074-.218.147-.364.147-.51 0-.363-.22-.436-.44-.436h-.293v-.363h2.126V8h.073zM43.91 22.327c2.053 0 3.226 1.455 3.226 3.491 0 2.037-1.173 3.491-3.225 3.491-2.053 0-3.226-1.454-3.226-3.49 0-2.037 1.173-3.492 3.226-3.492zm0 6.473c.954 0 1.247-.8 1.247-2.982 0-2.545-.586-2.982-1.246-2.982s-1.246.437-1.246 2.982c0 2.255.293 2.982 1.246 2.982zM48.896 22.91h-.953v-.365h.953v-.581c0-1.673.806-2.764 2.565-2.764.88 0 2.053.364 2.053 1.382 0 .582-.367.945-.88.945s-.88-.29-.88-.8c0-.582.367-.582.367-.872 0-.219-.293-.291-.44-.291-.953-.073-.88 1.163-.88 1.818v1.163h1.247v.364h-1.246v4.873c0 .727.146.873.513.873h.733v.363h-4.105v-.363h.44c.366 0 .513-.146.513-.873v-4.873zM61.798 28.655c.586 0 .953 0 .953-.364 0-.218-.22-.727-.44-1.382l-.367-.873h-3.299l-.366.873c-.22.436-.367.946-.367 1.236 0 .364.294.51.733.582h.367v.364h-2.859v-.364c.66 0 .88-.363 1.32-1.382l2.565-6.109c.22-.509.44-1.018.587-1.527h1.173c.146.655.366 1.236.586 1.818l2.42 6.255c.146.436.366.945.879.945h.293v.364h-4.178v-.436zm-1.393-6.764l-1.54 3.709h3.006l-1.466-3.71zM66.123 31.49h.44c.44 0 .513-.435.513-1.09v-5.673c0-1.382.073-1.818-.587-1.818h-.293v-.364h1.173c.586 0 1.1-.072 1.613-.218v1.237c.366-.873 1.1-1.237 1.906-1.237 1.906 0 2.565 1.818 2.565 3.491 0 1.6-.66 3.418-2.492 3.418-.806 0-1.613-.363-1.906-1.018v1.891c0 1.091 0 1.455.513 1.455h.44v.363h-3.812v-.436h-.073zm4.178-2.908c1.026 0 1.026-2.4 1.026-2.982 0-.655 0-2.618-1.026-2.618-1.246 0-1.32 1.818-1.32 2.69 0 .873 0 2.91 1.32 2.91zM74.113 31.49h.44c.44 0 .513-.435.513-1.09v-5.673c0-1.382.073-1.818-.586-1.818h-.294v-.364h1.173c.587 0 1.1-.072 1.613-.218v1.237c.367-.873 1.1-1.237 1.906-1.237 1.906 0 2.566 1.818 2.566 3.491 0 1.6-.66 3.418-2.493 3.418-.806 0-1.612-.363-1.906-1.018v1.891c0 1.091 0 1.455.514 1.455h.44v.363h-3.813v-.436h-.073zm4.252-2.908c1.026 0 1.026-2.4 1.026-2.982 0-.655 0-2.618-1.026-2.618-1.246 0-1.32 1.818-1.32 2.69-.073.873 0 2.91 1.32 2.91zM82.104 28.655h.44c.366 0 .513-.146.513-.873v-7.2c0-.727-.147-.873-.514-.873h-.44v-.364h2.86v8.437c0 .727.146.873.513.873h.44v.363h-3.812v-.363zM86.209 28.655h.44c.366 0 .513-.146.513-.873v-4c0-.727-.147-.873-.513-.873h-.44v-.364h1.393c.513 0 1.173-.072 1.539-.218-.073 1.018-.073 2.037-.073 3.055v2.4c0 .727.146.873.513.873h.44v.363h-3.812v-.363zm1.906-9.31c.586 0 1.1.51 1.1 1.091 0 .582-.514 1.091-1.1 1.091-.587 0-1.1-.509-1.1-1.09 0-.582.513-1.092 1.1-1.092zM92.806 25.818v.291c0 1.31.147 2.691 1.613 2.691 1.173 0 1.833-.945 1.833-1.964h.586c-.146 1.6-1.173 2.473-2.859 2.473-2.052 0-3.225-1.454-3.225-3.49 0-2.037 1.173-3.492 3.225-3.492 2.2 0 2.933 1.455 2.933 3.491h-4.106zm2.053-.363c0-1.382 0-2.619-.953-2.619-1.1 0-1.173 1.382-1.173 2.619h2.126zM102.556 28.073c-.293.8-1.1 1.163-1.98 1.163-1.832 0-2.492-1.89-2.492-3.418 0-1.673.66-3.49 2.566-3.49.807 0 1.466.363 1.833 1.09v-2.763c0-.655 0-.873-.513-.873h-.44v-.364h2.786v8.437c0 .8.22.872.513.872h.44v.364h-2.786v-1.018h.073zm-1.466.509c1.32 0 1.32-2.11 1.32-2.982 0-.873-.074-2.69-1.32-2.69-1.026 0-1.026 2.035-1.026 2.617 0 .728 0 3.055 1.026 3.055zM110.18 26.618h.513c0 1.31 1.173 2.255 2.493 2.255 1.1 0 1.832-.655 1.832-1.673 0-2.4-4.911-1.31-4.911-4.727 0-1.818 1.393-2.764 3.079-2.764.733 0 1.54.364 1.979.364.22 0 .366-.146.366-.291h.44v2.327h-.513c-.073-1.164-1.026-1.964-2.199-1.964-.88 0-1.833.437-1.833 1.455 0 2.255 4.985 1.09 4.985 4.873 0 1.818-1.54 2.909-3.225 2.909-.88 0-1.76-.364-2.273-.364-.22 0-.293.073-.366.291h-.44v-2.69h.073zM123.522 26.836c-.147 1.6-1.1 2.4-2.712 2.4-2.126 0-3.08-1.6-3.08-3.563 0-2.473 1.76-3.418 3.373-3.418 1.832 0 2.346.945 2.346 1.454 0 .655-.294 1.091-1.027 1.091-.513 0-.88-.364-.88-.873 0-.363.147-.436.147-.582 0-.29-.44-.509-.733-.509-1.1 0-1.173 1.6-1.173 3.128 0 1.018 0 2.909 1.466 2.909 1.173 0 1.686-.873 1.76-1.964h.513v-.073zM124.108 28.655h.44c.367 0 .513-.146.513-.873v-4c0-.727-.146-.873-.513-.873h-.44v-.364h1.393c.513 0 1.173-.072 1.54-.218-.074 1.018-.074 2.037-.074 3.055v2.4c0 .727.147.873.513.873h.44v.363h-3.812v-.363zm1.906-9.31c.587 0 1.1.51 1.1 1.091 0 .582-.513 1.091-1.1 1.091-.586 0-1.1-.509-1.1-1.09 0-.582.514-1.092 1.1-1.092zM130.706 25.818v.291c0 1.31.147 2.691 1.613 2.691 1.173 0 1.832-.945 1.832-1.964h.587c-.147 1.6-1.173 2.473-2.86 2.473-2.052 0-3.225-1.454-3.225-3.49 0-2.037 1.173-3.492 3.226-3.492 2.2 0 2.932 1.455 2.932 3.491h-4.105zm2.126-.363c0-1.382 0-2.619-.953-2.619-1.1 0-1.173 1.382-1.173 2.619h2.126zM135.69 28.655h.44c.367 0 .514-.146.514-.873v-4c0-.727-.147-.873-.513-.873h-.44v-.364h1.393a4.3 4.3 0 0 0 1.392-.218v1.164c.514-.727 1.173-1.164 2.126-1.164 1.32 0 1.906.8 1.906 1.818v3.637c0 .727.147.873.514.873h.293v.363h-3.519v-.363h.293c.367 0 .513-.146.513-.873v-3.273c0-.654 0-1.382-.806-1.382-1.246 0-1.246 1.455-1.246 2.255v2.4c0 .727.146.873.513.873h.293v.363h-3.665v-.363zM149.839 26.836c-.22 1.6-1.1 2.4-2.712 2.4-2.126 0-3.08-1.6-3.08-3.563 0-2.473 1.76-3.418 3.373-3.418 1.833 0 2.346.945 2.346 1.454 0 .655-.293 1.091-1.027 1.091-.513 0-.88-.364-.88-.873 0-.363.147-.436.147-.582 0-.29-.44-.509-.733-.509-1.1 0-1.173 1.6-1.173 3.128 0 1.018 0 2.909 1.467 2.909 1.172 0 1.686-.873 1.759-1.964h.513v-.073zM152.771 25.818v.291c0 1.31.147 2.691 1.613 2.691 1.173 0 1.833-.945 1.833-1.964h.586c-.146 1.6-1.173 2.473-2.859 2.473-2.052 0-3.225-1.454-3.225-3.49 0-2.037 1.173-3.492 3.225-3.492 2.2 0 2.932 1.455 2.932 3.491h-4.105zm2.053-.363c0-1.382 0-2.619-.953-2.619-1.1 0-1.173 1.382-1.173 2.619h2.126zM157.976 26.91h.44c.293 1.09.88 1.89 2.126 1.89.66 0 1.32-.364 1.32-1.018 0-.8-.66-1.018-1.907-1.31-.953-.217-1.906-.581-1.906-1.89 0-1.527 1.173-2.255 2.566-2.255.587 0 1.026.218 1.466.218.367 0 .587-.072.733-.218h.074v2.11h-.44c-.147-.873-.807-1.673-1.76-1.673-.66 0-1.32.218-1.32 1.018 0 .654.367.727 1.834 1.09 1.173.292 2.052.655 2.052 2.11 0 1.527-1.32 2.182-2.639 2.182-.586 0-1.32-.219-1.833-.219-.293 0-.513.146-.66.219h-.073v-2.255h-.073z"/></g></svg>

