<?xml version="1.0" encoding="UTF-8"?>
<svg width="545px" height="646px" viewBox="0 0 545 646" version="1.1" xmlns="http://www.w3.org/2000/svg" xmlns:xlink="http://www.w3.org/1999/xlink">
    <!-- Generator: Sketch 52.6 (67491) - http://www.bohemiancoding.com/sketch -->
    <title>Beeldmerk-A</title>
    <desc>Created with Sketch.</desc>
    <g id="Main" stroke="none" stroke-width="1" fill="none" fill-rule="evenodd">
        <g id="0.0-static-front" transform="translate(-118.000000, -106.000000)" stroke="#1B1A19" stroke-width="1.69">
            <g id="Beeldmerk-A" transform="translate(118.000000, 107.000000)">
                <path d="M512.4375,333.785 C512.4725,413.6325 492.8425,492.6 440.81,554.8825 C423.855,575.175 388.48,617.9375 358.1975,614.855 C336.295,612.6325 329.8825,587.21 310.6875,580.8575 C280.4075,570.835 265.14,593.185 250.9475,614.3375 C208.0375,678.295 191.345,624.7 155.9475,589.55 C132.5775,566.345 98.5525,558.0825 72.715,538.1125 C12.575,491.625 1.4125,405.29 0.85,334.7325 C0.51,291.815 19.7825,281.54 44.4275,253.25 C70.885,222.8775 82.93,184.285 96.8475,147.3375 C106.0475,122.8975 122.6625,60.215 155.4225,56.0625 C176.8425,53.3475 200.7,79.3125 221.19,83.9925 C275.5825,96.415 324.22,62.3575 367.64,35.51 C394.97,18.6125 435.86,-14.5 469.535,7.88 C495.1875,24.93 495.3725,59.335 511.3325,82.89 C523.365,100.6475 543.58,107.665 543.54,131.0025 C543.495,157.8675 511.1075,182.7725 504.3,208.615 C494.3625,246.36 512.4175,294.42 512.4375,333.785 Z M505.0475,333.785 C505.08,413.4675 486.2275,493.0725 434.7475,555.73 C418.6325,575.3475 384.995,616.6925 355.685,612.95 C335.5825,610.38 327.4275,584.1375 308.4025,578.855 C279.6925,570.8875 264.11,593.9975 250.9725,613.575 C207.3075,678.6575 189.505,621.8725 155.7675,587.675 C134.0325,565.65 102.8225,556.2225 78.92,537.0275 C21.835,491.1825 9.525,415.0275 15.21,346.08 C18.48,306.4375 44.94,292.625 61.335,260.2575 C79.85,223.7 90.48,184.4175 103.1425,145.6275 C110.6875,122.52 124.5725,64.285 155.66,58.18 C176.3625,54.12 199.8775,80.035 220.73,84.8175 C275.1775,97.305 324.015,63.1425 367.5075,36.3525 C394.865,19.5025 435.67,-13.3525 469.2525,9.1775 C494.6575,26.2225 495.4725,60.4775 510.3325,84.4925 C520.705,101.2475 538.6675,110.155 537.4525,131.9375 C536.0275,157.4675 506.3725,180.8875 498.6475,205.045 C486.3625,243.4525 505.03,293.4225 505.0475,333.785 Z M497.655,333.785 C497.6875,413.2675 479.62,493.525 428.715,556.5225 C413.1325,575.8 381.8625,614.8075 353.25,610.8925 C334.1875,608.2875 325.53,581.4125 306.16,577.0725 C279.0275,570.995 263.18,594.655 251,612.8075 C207.3925,677.7975 188.69,620.12 155.575,585.6825 C135.4875,564.79 107.1275,554.4725 84.905,536.225 C30.72,491.7275 16.4775,421.4975 28.6575,355.3875 C35.23,319.71 62.78,304.09 73.405,271.6775 C87.2675,229.395 96.5275,186.1025 109.1675,143.5125 C115.8775,120.8925 127.6675,65.8975 155.94,60.4425 C177.0525,56.3675 199.15,80.8425 220.245,85.67 C274.7975,98.1475 323.7425,64.005 367.375,37.195 C395.8225,19.7125 431.365,-8.8275 466.415,8.77 C493.36,22.3 495.015,59.91 507.65,83.5425 C516.8925,100.8375 533.225,111.5575 531.18,132.905 C528.7175,158.63 499.8075,180.6775 491.765,205.065 C479.165,243.255 497.64,293.58 497.655,333.785 Z M490.265,333.785 C489.33,413.425 473.635,492.35 422.6,557.0825 C407.255,576.5425 377.1925,614.5625 347.77,608.91 C333.75,606.2125 322.44,580.0575 306.9575,576.4475 C279.4025,570.03 263.475,593.5625 251.025,612.0425 C210.505,672.2 191.7375,628.145 160.3825,589.8275 C141.3,566.5075 113.46,554.73 91.03,535.2775 C39.815,490.8675 22.35,426.9575 41.25,362.81 C51.53,327.91 78.5025,312.6375 86.1925,277.2075 C95.99,232.065 103.1,185.8625 115.0325,141.2175 C120.9975,118.91 131.13,67.5425 158.855,61.8975 C178.5375,57.8925 203.89,83.9325 225.2675,87.665 C277.975,96.8575 325.1,63.865 367.2325,38.035 C395.6125,20.6375 431.1,-7.6575 466,10.0625 C490.0375,22.2725 491.59,52.7075 501.6175,73.9775 C510.9175,93.705 527.4425,111.35 524.73,133.8775 C521.44,161.23 491.2225,181.72 483.9725,208.425 C473.655,246.47 490.7275,294.39 490.265,333.785 Z M482.8725,333.785 C481.97,413.1675 467.01,492.7175 416.6675,557.695 C403.1375,575.155 372.9275,614.4675 345.7175,606.3775 C330.995,602 322.1925,577.8675 304.655,574.78 C278.7175,570.2175 262.595,594.1325 251.05,611.28 C212.76,668.1575 194.615,631.45 165.215,594.055 C145.7075,569.245 120.095,555.3825 96.925,534.6425 C48.0625,490.895 28.1425,429.6525 53.0375,368.485 C67.8025,332.2 92.23,320.8475 97.9475,280.5275 C104.625,233.44 109.485,185.0575 120.7275,138.7525 C126.13,116.4925 134.6,69.745 161.715,63.5225 C180.1175,59.3 208.39,86.7175 230.2675,89.37 C281.1,95.535 326.36,63.815 367.0825,38.8775 C393.905,22.4575 429.4325,-5.6725 463.0025,9.86 C487.5,21.2 490.5425,50.73 499.72,72.3625 C508.205,92.3775 522.25,112.5 518.595,134.6575 C514.065,162.0975 484.565,181.5375 477.0175,208.485 C466.4275,246.3125 483.32,294.535 482.8725,333.785 Z M475.4825,333.785 C474.605,412.8625 460.4075,493.025 410.795,558.2 C397.82,575.2475 370.0125,612.1975 343.7475,603.6975 C328.7875,598.8525 321.205,574.835 302.3975,573.3325 C277.565,571.35 262.4725,593.73 251.0775,610.5125 C215.3075,663.205 194.465,635.8025 167.3075,595.58 C149.845,569.72 125.1525,555.01 102.845,534.01 C56.11,490.0075 33.85,431.385 64.0825,372.5525 C83.33,335.1025 104.82,326.4975 108.755,281.8475 C113.01,233.535 115.705,183.6725 126.2525,136.1725 C131.1775,113.9875 138.1975,72.0875 164.5275,65.325 C181.87,60.8725 212.86,89.25 235.2425,90.8 C284.1775,94.1875 327.5625,63.7675 366.9325,39.7175 C392.385,24.1725 430.3175,-5.69 462.445,11.165 C485.27,23.1425 490.705,52.41 498.7,73.8 C505.9075,93.075 517.7225,114.28 512.755,135.26 C505.955,163.935 475.9325,182.835 468.5725,211.835 C459.265,248.52 475.9,295.9925 475.4825,333.785 Z M468.09,333.785 C467.2475,412.495 453.825,493.255 404.9925,558.585 C391.8375,576.185 367.76,608.7425 341.7775,600.7375 C326.4525,596.015 319.7875,572.595 300.1875,572.095 C279.2875,571.5575 260.3125,593.84 251.1025,609.75 C218.615,665.8725 194.3925,634.5675 167.2075,593.4325 C151.2375,569.2675 128.8925,553.6675 108.76,533.4175 C63.8025,488.215 39.9,432.57 74.4425,375.1575 C94.0525,342.56 116.47,328.285 118.3775,287.8225 C120.79,236.69 121.7625,184.135 131.7275,133.8025 C136.2475,110.98 142.3,72.365 169.62,68.245 C182.515,69.325 193.93,74.955 203.87,85.13 C219.46,91.6325 235.34,93.3875 251.515,90.395 C294.68,87.65 331.0775,62.32 366.775,40.5625 C428.6025,2.87 473.385,-4.91 496.86,71.9275 C503.0225,92.1075 512.71,114.6475 506.7875,135.7875 C498.805,164.3125 469.2025,182.77 461.575,211.8825 C452.02,248.355 468.4925,296.1425 468.09,333.785 Z" id="Stroke-1"></path>
                <path d="M460.7,333.785 C459.8875,412.075 447.2675,493.39 399.2675,558.82 C382.955,581.0575 364.79,605.6175 337.135,593.72 C323.285,587.7625 315.6575,570.5575 298.02,571.0575 C278.395,571.6175 259.885,594.2225 251.13,608.9875 C219.8925,661.655 195.6725,636.5875 169.295,595.19 C153.82,570.9 133.9775,553.9325 114.505,533.08 C71.0975,486.5875 46.235,432.655 84.17,376.44 C106.3625,343.55 126.995,328.29 127.7275,286.0075 C128.6125,234.7325 127.74,181.8325 136.9675,131.2125 C141.8225,104.5625 146.6175,73.5275 174.7975,72.5975 C186.7275,77.6525 198.5375,82.9775 210.23,88.5675 C225.445,93.575 240.7,94.37 255.985,90.95 C297.235,86.565 332.225,62.315 366.6125,41.405 C427.2325,4.535 474.05,-6.415 495.6475,73.355 C501.1325,93.6025 507.275,115.84 500.7225,136.21 C491.9925,163.3375 464.6275,181.085 455.8725,208.3875 C444.1025,245.09 461.0925,295.9025 460.7,333.785 Z M453.3075,333.785 C452.495,411.17 440.93,494.0225 393.6875,559.1425 C379.35,578.9125 362.74,601.3875 337.635,592.285 C318.4025,585.3125 314.96,566.6225 289.9025,572.6375 C273.885,576.48 258.9125,595.2875 251.155,608.2175 C222.215,656.45 197.415,639.4075 171.8275,598.0175 C156.585,573.36 139.14,554.69 120.16,532.905 C78.1225,484.655 52.9425,432.3325 93.3225,376.545 C117.4175,343.265 136.5625,326.3725 136.3325,282.7675 C136.065,231.8375 133.5825,179.12 142.075,128.7 C147.1775,98.405 150.78,75.0475 179.9325,76.66 C208.0475,78.2125 228.4625,96.0625 260.43,91.3175 C299.7675,85.4825 333.3375,62.3575 366.445,42.2425 C422.6775,8.08 473.245,-7.5725 493.725,70.82 C499.1,91.4 502.2975,116.305 495.01,136.3925 C485.23,163.345 457.94,181.065 448.905,208.47 C436.875,244.95 453.7025,296.0825 453.3075,333.785 Z M445.9175,333.785 C445.1375,410.58 434.4425,493.97 388.135,559.0575 C382.9725,566.315 371.35,584.1075 361.5075,587.8875 C344.2325,594.5325 349.1175,591.315 332.955,585.79 C315.0325,579.665 310.29,565.5075 288.13,572.245 C272.995,576.845 258.78,595.0775 251.18,607.455 C225.335,649.555 200.5575,643.61 175.97,603.23 C160.3375,577.5575 144.605,556.3 125.71,532.9175 C84.99,482.53 59.9575,431.7275 101.955,375.6175 C127.295,341.765 145.2775,322.8925 144.28,278.32 C143.1575,228.3925 138.8275,175.845 147.0675,126.325 C152.6025,93.055 154.74,76.9475 185.0275,80.46 C213.81,83.795 232.8375,97.58 264.8475,91.51 C302.2775,84.4075 334.44,62.4075 366.2725,43.085 C416.21,12.7775 468.525,-8.9375 489.59,63.505 C496.25,86.41 498.4025,114.105 489.4425,136.3675 C478.6625,163.1425 451.2975,181.0225 441.955,208.53 C429.6375,244.8 446.2975,296.2225 445.9175,333.785 Z M438.525,333.785 C437.7775,409.9625 427.97,493.815 382.6875,558.875 C378.155,565.3875 366.9525,582.995 357.7825,586.2175 C339.165,592.765 345.5825,586.3375 328.4275,580.1375 C291.7575,566.8775 273.9075,570.255 251.205,606.6925 C203.105,683.895 161.61,573.965 131.1225,533.255 C92.175,481.2425 67.2025,429.74 110.13,373.8 C136.2225,339.7925 153.2525,318.18 151.65,272.885 C149.925,224.145 144.405,172.6175 151.955,124.15 C157.745,86.9925 159.135,79.74 192.12,85.705 C220.36,90.8125 239.325,98.41 269.2375,91.5275 C304.765,83.355 335.54,62.4275 366.095,43.9275 C409.85,17.43 456.9875,-8.8475 482.74,52.07 C493.855,78.385 495.685,109.5975 484.2225,136.1025 C473.115,161.785 447.3,179.03 436.72,204.925 C421.58,241.9675 438.905,294.8925 438.525,333.785 Z M431.135,333.785 C430.42,409.2025 421.565,493.5 377.36,558.3875 C373.28,564.375 362.795,581.3175 354.195,584.2075 C335.845,590.37 340.77,580.815 324.0475,575.12 C289.6325,563.39 270.975,574.9025 251.2325,605.925 C202.725,682.1525 164.5625,574.6875 136.44,533.69 C98.9475,479.03 74.6225,428.6775 117.8975,371.2275 C147.1175,332.4425 160.5675,310.25 158.1975,259.8375 C156.0625,214.4525 150.25,167.1725 156.6425,121.925 C163.0325,76.68 167.3475,84.6675 205.4575,93.2725 C265.935,106.93 316.145,74.8525 365.9125,44.7675 C406.155,20.44 451.215,-6.8225 478.365,47.265 C492.43,75.29 492.1325,107.5475 478.9675,135.6275 C466.925,161.325 440.87,178.7725 429.8675,204.93 C414.365,241.8 431.5,294.955 431.135,333.785 Z M423.7425,333.785 C423.065,408.36 415.1975,493.0075 372.1625,557.665 C351.0575,589.37 350.0975,579.8275 319.8075,570.7825 C287.745,561.205 268.515,578.5775 251.26,605.1625 C202.655,680.03 167.33,575.5725 141.6175,534.365 C105.7725,476.92 82.1775,427.4075 125.315,368.05 C154.085,328.4625 167.3925,303.6675 164.615,253.21 C162.21,209.54 155.65,163.97 161.365,120.3375 C167.44,73.9725 174.77,90.1575 213.0175,96.96 C269.4675,107.0025 320.12,73.15 365.7275,45.61 C402.2675,23.5475 446.2625,-4.6525 473.86,43.25 C490.5475,72.2125 488.84,105.995 473.9025,134.895 C460.6725,160.4925 434.5125,178.44 423.065,204.8725 C407.155,241.6125 424.095,294.96 423.7425,333.785 Z M416.3525,333.785 C415.7075,407.44 408.8575,492.3175 367.0975,556.695 C346.2275,588.87 346.4575,574.035 315.705,567.0875 C285.8825,560.3525 266.685,581.1125 251.285,604.3975 C202.9575,677.4525 169.93,576.6275 146.65,535.3025 C112.6775,474.9875 89.795,425.9475 132.445,364.4075 C160.425,324.0275 173.8,296.695 170.7175,246.3025 C168.195,205.0525 159.715,160.3275 166.02,119.145 C172.8175,74.765 182.52,95.84 220.5325,99.9725 C273.77,105.7675 322.7575,72.2275 365.5325,46.455 C396.7325,27.6575 437.1675,0.065 467.09,35.4875 C490.74,63.485 484.6175,104.785 468.8375,133.885 C454.5625,160.2175 425.2925,179.8625 415.045,208.1725 C402.0125,244.17 416.6825,295.8875 416.3525,333.785 Z M408.9575,333.785 C408.375,403.715 404.425,494.815 362.185,555.4575 C341,585.87 343.0975,568.04 311.7275,564.0125 C284.0425,560.4575 265.3975,582.705 251.31,603.63 C203.62,674.45 172.4375,577.9825 151.525,536.5175 C119.665,473.3275 97.435,424.2975 139.3325,360.4425 C166.3025,319.3425 179.8825,289.555 176.58,239.32 C174.005,200.1575 164.995,157.565 170.625,118.41 C176.47,77.7775 193.125,101.5075 227.99,102.3525 C278.5075,103.5725 325,72.665 365.3375,47.295 C393.125,29.8175 434.035,3.4125 462.4,33.5475 C488.4275,61.1925 480.7225,103.66 464.19,132.5625 C449.0825,158.975 418.995,179.295 408.31,207.9375 C394.8675,243.9775 409.2775,295.735 408.9575,333.785 Z" id="Stroke-3"></path>
                <path d="M401.5675,333.785 C401.0425,399.5375 399.8675,497.5 357.4275,553.9275 C337.0975,580.96 338.245,561.845 307.8725,561.5125 C282.2275,561.2275 264.56,583.5525 251.335,602.8675 C204.6825,670.9925 174.74,579.4225 156.2325,538.025 C126.73,472.0325 104.7475,422.55 146.045,356.2975 C173.2525,312.6525 185.6375,278.04 181.79,225.94 C179.6225,196.5825 165.6425,147.05 175.3075,118.555 C177.095,113.2825 174.4875,100.175 179.95,96.325 C180.53,95.9175 228.4375,104.42 230.325,104.385 C279.86,103.4375 325.1425,73.19 365.1375,48.1375 C390.43,32.29 430.2925,6.1325 457.605,32.2075 C484.535,57.92 476.205,103.5225 459.77,130.92 C443.48,158.0825 414.365,178.45 401.65,207.61 C386.645,242.01 401.865,297.04 401.5675,333.785 Z M394.175,333.785 C393.7125,394.0375 395.4275,501.405 352.8375,552.1025 C333.675,574.9075 331.6225,556.025 304.1325,559.5575 C280.0975,562.645 264.29,583.85 251.3625,602.1025 C205.905,666.2675 177.0275,581.02 160.7625,539.85 C133.6875,471.3075 112.42,420.46 152.635,352.1175 C178.515,308.1325 191.4525,271.38 187.3975,219.7175 C185.4925,195.4825 169.65,141.74 179.8425,118.9125 C184.5375,108.395 178.9925,108.6525 188.875,103.2425 C192.385,101.3225 232.9175,106.5325 237.9375,105.9925 C284.5775,100.96 326.5575,72.9825 364.93,48.9775 C389.265,33.7525 428.8625,7.8875 454.8975,33.7975 C479.6325,58.405 472.285,102.845 455.7675,128.945 C438.2925,156.5625 403.9175,179.625 392.79,210.775 C380.25,245.8725 394.4575,297.345 394.175,333.785 Z M386.785,333.785 C387.0575,297.0575 373.1175,245.525 386.21,210.255 C398.3325,177.585 434.5725,156.35 451.8375,126.6075 C466.3175,101.66 474.795,55.745 449.8075,33.18 C425.04,10.81 386.7675,35.9825 364.72,49.8175 C327.9975,72.865 288.935,98.5625 245.485,107.02 C223.12,111.37 193.685,101.9625 184.3625,119.91 C174.57,138.7675 191.495,193.45 192.99,214.0625 C196.72,265.39 183.8825,303.64 159.155,348.0425 C120.5575,417.3525 139.5325,471.8225 165.1,541.86 C178.715,579.1575 209.2,662.9075 251.3875,601.335 C263.155,584.1625 278.595,563.5525 300.5125,557.985 C322.33,552.445 332.895,565.4275 348.425,549.795 C364.1975,533.92 368.365,495.63 373.14,474.8025 C383.8625,428.0725 386.435,381.3275 386.785,333.785 Z" id="Stroke-4"></path>
            </g>
        </g>
    </g>
</svg>